<mxfile host="app.diagrams.net" agent="Mozilla/5.0 (Macintosh; Intel Mac OS X 10_15_7) AppleWebKit/537.36 (KHTML, like Gecko) Chrome/131.0.0.0 Safari/537.36" version="25.0.3">
  <diagram id="07fea595-8f29-1299-0266-81d95cde20df" name="Page-1">
    <mxGraphModel dx="1147" dy="636" grid="1" gridSize="10" guides="1" tooltips="1" connect="1" arrows="1" fold="1" page="1" pageScale="1" pageWidth="1169" pageHeight="827" background="#ffffff" math="0" shadow="0">
      <root>
        <mxCell id="0" />
        <mxCell id="1" parent="0" />
        <mxCell id="Yj-UceJBn9ZWJG6sJz91-222" style="edgeStyle=orthogonalEdgeStyle;rounded=0;orthogonalLoop=1;jettySize=auto;html=1;exitX=0.5;exitY=1;exitDx=0;exitDy=0;entryX=0.5;entryY=0;entryDx=0;entryDy=0;" edge="1" parent="1" source="Yj-UceJBn9ZWJG6sJz91-217" target="Yj-UceJBn9ZWJG6sJz91-218">
          <mxGeometry relative="1" as="geometry" />
        </mxCell>
        <mxCell id="Yj-UceJBn9ZWJG6sJz91-227" value="Y" style="edgeLabel;html=1;align=center;verticalAlign=middle;resizable=0;points=[];" vertex="1" connectable="0" parent="Yj-UceJBn9ZWJG6sJz91-222">
          <mxGeometry x="-0.08" relative="1" as="geometry">
            <mxPoint as="offset" />
          </mxGeometry>
        </mxCell>
        <mxCell id="Yj-UceJBn9ZWJG6sJz91-217" value="空闲" style="whiteSpace=wrap;shadow=0;fontColor=#FFFFFF;fontFamily=Helvetica;fontStyle=0;html=1;fontSize=12;plain-purple;strokeColor=none;fillColor=#2f5b7c;gradientColor=none;spacing=6;verticalAlign=middle;" vertex="1" parent="1">
          <mxGeometry x="360" y="80" width="120" height="60" as="geometry" />
        </mxCell>
        <mxCell id="Yj-UceJBn9ZWJG6sJz91-226" value="" style="edgeStyle=orthogonalEdgeStyle;rounded=0;orthogonalLoop=1;jettySize=auto;html=1;" edge="1" parent="1" source="Yj-UceJBn9ZWJG6sJz91-218" target="Yj-UceJBn9ZWJG6sJz91-225">
          <mxGeometry relative="1" as="geometry" />
        </mxCell>
        <mxCell id="Yj-UceJBn9ZWJG6sJz91-228" value="N" style="edgeLabel;html=1;align=center;verticalAlign=middle;resizable=0;points=[];" vertex="1" connectable="0" parent="Yj-UceJBn9ZWJG6sJz91-226">
          <mxGeometry x="-0.0333" y="1" relative="1" as="geometry">
            <mxPoint as="offset" />
          </mxGeometry>
        </mxCell>
        <mxCell id="Yj-UceJBn9ZWJG6sJz91-229" style="edgeStyle=orthogonalEdgeStyle;rounded=0;orthogonalLoop=1;jettySize=auto;html=1;exitX=0.5;exitY=1;exitDx=0;exitDy=0;" edge="1" parent="1" source="Yj-UceJBn9ZWJG6sJz91-218" target="Yj-UceJBn9ZWJG6sJz91-219">
          <mxGeometry relative="1" as="geometry" />
        </mxCell>
        <mxCell id="Yj-UceJBn9ZWJG6sJz91-230" value="Y" style="edgeLabel;html=1;align=center;verticalAlign=middle;resizable=0;points=[];" vertex="1" connectable="0" parent="Yj-UceJBn9ZWJG6sJz91-229">
          <mxGeometry x="0.0133" y="-1" relative="1" as="geometry">
            <mxPoint as="offset" />
          </mxGeometry>
        </mxCell>
        <mxCell id="Yj-UceJBn9ZWJG6sJz91-235" style="edgeStyle=orthogonalEdgeStyle;rounded=0;orthogonalLoop=1;jettySize=auto;html=1;exitX=1;exitY=0.5;exitDx=0;exitDy=0;" edge="1" parent="1" source="Yj-UceJBn9ZWJG6sJz91-218" target="Yj-UceJBn9ZWJG6sJz91-221">
          <mxGeometry relative="1" as="geometry" />
        </mxCell>
        <mxCell id="Yj-UceJBn9ZWJG6sJz91-236" value="N" style="edgeLabel;html=1;align=center;verticalAlign=middle;resizable=0;points=[];" vertex="1" connectable="0" parent="Yj-UceJBn9ZWJG6sJz91-235">
          <mxGeometry x="-0.7333" y="-1" relative="1" as="geometry">
            <mxPoint as="offset" />
          </mxGeometry>
        </mxCell>
        <mxCell id="Yj-UceJBn9ZWJG6sJz91-218" value="预约中" style="whiteSpace=wrap;shadow=0;fontColor=#FFFFFF;fontFamily=Helvetica;fontStyle=0;html=1;fontSize=12;plain-purple;strokeColor=none;fillColor=#2f5b7c;gradientColor=none;spacing=6;verticalAlign=middle;" vertex="1" parent="1">
          <mxGeometry x="360" y="240" width="120" height="60" as="geometry" />
        </mxCell>
        <mxCell id="Yj-UceJBn9ZWJG6sJz91-231" style="edgeStyle=orthogonalEdgeStyle;rounded=0;orthogonalLoop=1;jettySize=auto;html=1;exitX=0.5;exitY=1;exitDx=0;exitDy=0;entryX=0.5;entryY=0;entryDx=0;entryDy=0;" edge="1" parent="1" source="Yj-UceJBn9ZWJG6sJz91-219" target="Yj-UceJBn9ZWJG6sJz91-220">
          <mxGeometry relative="1" as="geometry" />
        </mxCell>
        <mxCell id="Yj-UceJBn9ZWJG6sJz91-232" value="Y" style="edgeLabel;html=1;align=center;verticalAlign=middle;resizable=0;points=[];" vertex="1" connectable="0" parent="Yj-UceJBn9ZWJG6sJz91-231">
          <mxGeometry x="-0.0133" relative="1" as="geometry">
            <mxPoint as="offset" />
          </mxGeometry>
        </mxCell>
        <mxCell id="Yj-UceJBn9ZWJG6sJz91-233" style="edgeStyle=orthogonalEdgeStyle;rounded=0;orthogonalLoop=1;jettySize=auto;html=1;exitX=1;exitY=0.5;exitDx=0;exitDy=0;" edge="1" parent="1" source="Yj-UceJBn9ZWJG6sJz91-219" target="Yj-UceJBn9ZWJG6sJz91-221">
          <mxGeometry relative="1" as="geometry" />
        </mxCell>
        <mxCell id="Yj-UceJBn9ZWJG6sJz91-234" value="N" style="edgeLabel;html=1;align=center;verticalAlign=middle;resizable=0;points=[];" vertex="1" connectable="0" parent="Yj-UceJBn9ZWJG6sJz91-233">
          <mxGeometry x="0.5309" y="1" relative="1" as="geometry">
            <mxPoint x="-81" y="-67" as="offset" />
          </mxGeometry>
        </mxCell>
        <mxCell id="Yj-UceJBn9ZWJG6sJz91-219" value="预约成功" style="whiteSpace=wrap;shadow=0;fontColor=#FFFFFF;fontFamily=Helvetica;fontStyle=0;html=1;fontSize=12;plain-purple;strokeColor=none;fillColor=#2f5b7c;gradientColor=none;spacing=6;verticalAlign=middle;" vertex="1" parent="1">
          <mxGeometry x="360" y="400" width="120" height="60" as="geometry" />
        </mxCell>
        <mxCell id="Yj-UceJBn9ZWJG6sJz91-220" value="已完成" style="whiteSpace=wrap;shadow=0;fontColor=#FFFFFF;fontFamily=Helvetica;fontStyle=0;html=1;fontSize=12;plain-purple;strokeColor=none;fillColor=#2f5b7c;gradientColor=none;spacing=6;verticalAlign=middle;" vertex="1" parent="1">
          <mxGeometry x="360" y="560" width="120" height="60" as="geometry" />
        </mxCell>
        <mxCell id="Yj-UceJBn9ZWJG6sJz91-221" value="已取消" style="whiteSpace=wrap;shadow=0;fontColor=#FFFFFF;fontFamily=Helvetica;fontStyle=0;html=1;fontSize=12;plain-purple;strokeColor=none;fillColor=#2f5b7c;gradientColor=none;spacing=6;verticalAlign=middle;" vertex="1" parent="1">
          <mxGeometry x="560" y="560" width="120" height="60" as="geometry" />
        </mxCell>
        <mxCell id="Yj-UceJBn9ZWJG6sJz91-225" value="预约失败" style="whiteSpace=wrap;html=1;fillColor=#ff1f1f;strokeColor=none;fontColor=#FFFFFF;shadow=0;fontStyle=0;gradientColor=none;spacing=6;" vertex="1" parent="1">
          <mxGeometry x="80" y="240" width="120" height="60" as="geometry" />
        </mxCell>
        <mxCell id="Yj-UceJBn9ZWJG6sJz91-241" value="" style="rounded=1;whiteSpace=wrap;html=1;fillColor=none;" vertex="1" parent="1">
          <mxGeometry x="330" y="40" width="390" height="640" as="geometry" />
        </mxCell>
        <mxCell id="Yj-UceJBn9ZWJG6sJz91-243" value="课程状态" style="text;html=1;align=center;verticalAlign=middle;whiteSpace=wrap;rounded=0;fontSize=20;" vertex="1" parent="1">
          <mxGeometry x="595" y="80" width="85" height="30" as="geometry" />
        </mxCell>
        <mxCell id="Yj-UceJBn9ZWJG6sJz91-244" value="" style="rounded=1;whiteSpace=wrap;html=1;fillColor=none;" vertex="1" parent="1">
          <mxGeometry x="40" y="40" width="200" height="640" as="geometry" />
        </mxCell>
        <mxCell id="Yj-UceJBn9ZWJG6sJz91-245" value="通知" style="text;html=1;align=center;verticalAlign=middle;whiteSpace=wrap;rounded=0;fontSize=20;" vertex="1" parent="1">
          <mxGeometry x="80" y="80" width="60" height="30" as="geometry" />
        </mxCell>
      </root>
    </mxGraphModel>
  </diagram>
</mxfile>
